<?xml version="1.0" encoding="UTF-8"?>
<svg xmlns="http://www.w3.org/2000/svg" xmlns:xlink="http://www.w3.org/1999/xlink" width="150px" height="150px" viewBox="0 0 180 180" version="1.1">
<g id="surface1">
<path style="fill-rule:nonzero;fill:rgb(0%,0%,0%);fill-opacity:1;stroke-width:3.408;stroke-linecap:butt;stroke-linejoin:miter;stroke:rgb(100%,100%,100%);stroke-opacity:1;stroke-miterlimit:4;" d="M 234.88675 174.92575 C 193.558625 174.92575 170.316438 196.292937 170.316438 239.951792 L 170.316438 690.082 C 170.316438 730.928354 191.214875 752.308562 232.516958 752.308562 L 684.535188 752.308562 C 725.837271 752.308562 746.76175 731.983042 746.76175 690.082 L 746.76175 239.951792 C 746.76175 197.360646 725.837271 174.92575 683.246125 174.92575 C 683.246125 174.92575 234.743521 174.782521 234.88675 174.92575 Z M 234.88675 174.92575 " transform="matrix(0.3,0,0,0.3,-45.7629,-47.2746)"/>
<path style="fill:none;stroke-width:50.715;stroke-linecap:butt;stroke-linejoin:miter;stroke:rgb(100%,100%,100%);stroke-opacity:1;stroke-miterlimit:4;" d="M 461.045604 656.292937 C 353.207063 656.292937 265.785188 568.871062 265.785188 461.045542 C 265.785188 353.207 353.207063 265.785125 461.045604 265.785125 C 568.884146 265.785125 656.293 353.207 656.293 461.045542 C 656.293 568.871062 568.884146 656.292937 461.045604 656.292937 Z M 461.045604 656.292937 " transform="matrix(0.3,0,0,0.3,-45.7629,-47.2746)"/>
<path style=" stroke:none;fill-rule:nonzero;fill:rgb(100%,100%,100%);fill-opacity:1;" d="M 61.96875 101.316406 L 76.199219 101.316406 C 77.101562 105.4375 78.285156 110.425781 84.765625 112.273438 L 84.75 96.078125 C 75.871094 94.796875 63.066406 90.886719 63.066406 76.554688 C 63.066406 60.4375 80.820312 55.414062 84.765625 55.414062 L 84.765625 45.671875 L 98.152344 45.671875 L 98.152344 55.414062 C 107.175781 55.9375 120.273438 63.511719 120.273438 77.914062 L 106.183594 77.914062 C 105.824219 73.636719 102.523438 69.4375 98.292969 69.136719 L 98.292969 83.988281 C 109.050781 85.097656 121.679688 89.21875 121.679688 103.734375 C 121.679688 116.410156 109 125.652344 98.292969 126.222656 L 98.292969 135.992188 L 84.765625 135.992188 L 84.765625 126.078125 C 77.015625 124.941406 62.851562 117.4375 61.96875 101.316406 Z M 61.96875 101.316406 "/>
<path style=" stroke:none;fill-rule:nonzero;fill:rgb(0%,0%,0%);fill-opacity:1;" d="M 84.835938 69.285156 L 84.835938 81.589844 C 75.300781 81.4375 75.113281 70.992188 84.835938 69.285156 Z M 98.449219 98.386719 C 110.25 98.6875 111.5625 110.464844 98.4375 112.347656 M 98.4375 112.347656 L 98.449219 98.386719 "/>
</g>
</svg>
